<?xml version="1.0" encoding="iso-8859-1"?>
<!-- Generator: Adobe Illustrator 16.0.0, SVG Export Plug-In . SVG Version: 6.00 Build 0)  -->
<!DOCTYPE svg PUBLIC "-//W3C//DTD SVG 1.1//EN" "http://www.w3.org/Graphics/SVG/1.1/DTD/svg11.dtd">
<svg xmlns="http://www.w3.org/2000/svg" xmlns:xlink="http://www.w3.org/1999/xlink" version="1.1" id="Capa_1" x="0px" y="0px" width="512px" height="512px" viewBox="0 0 581.459 581.458" style="enable-background:new 0 0 581.459 581.458;" xml:space="preserve">
<g>
	<g>
		<path d="M292.896,205.571c29.453-11.886,40.431-38.336,27.464-50.222c-12.967-11.887-27.827,4.981-27.827,4.981h-0.105    c0,0-14.86-16.878-27.827-4.991c-12.967,11.886-2.199,37.973,27.253,49.858L292.896,205.571z" fill="#46d4c8"/>
		<path d="M463.787,316.629c-1.941-46.474-49.237-105.12-130.012-73.028l-31.537-29.873l12.728,29.873l-24.241,4.312l-24.241-4.312    l12.728-29.873l-31.537,29.873c-80.774-32.092-128.08,26.555-130.012,73.028c-3.491,83.892-27.665,94.057-27.665,94.057    s84.093,44.266,130.566,0c46.474-44.255,33.746-154.357,33.746-154.357l36.414-8.147l36.414,8.147    c0,0-12.728,110.093,33.746,154.357c46.474,44.266,130.566,0,130.566,0S467.287,400.512,463.787,316.629z M131.213,375.544    c0,0,6.082-83.538,43.71-60.856C212.542,337.371,138.126,373.058,131.213,375.544z M204.481,272.289    c-5.288,3.739-11.465,5.689-17.815,5.689c-1.769,0-3.538-0.153-5.317-0.449c-1.807-0.315-3.021-2.027-2.716-3.835    c0.316-1.807,2.104-3.002,3.834-2.716c6.407,1.101,12.871-0.354,18.169-4.111c5.307-3.758,8.836-9.353,9.936-15.769    c0.315-1.808,2.094-2.983,3.834-2.716c1.807,0.315,3.021,2.027,2.716,3.835C215.727,260.393,211.232,267.517,204.481,272.289z     M376.97,272.289c-6.761-4.781-11.246-11.905-12.643-20.071c-0.306-1.808,0.909-3.52,2.716-3.835    c1.808-0.287,3.52,0.908,3.835,2.716c1.1,6.416,4.628,12.011,9.936,15.769c5.307,3.758,11.742,5.202,18.169,4.111    c1.769-0.296,3.519,0.899,3.834,2.716c0.307,1.808-0.908,3.52-2.716,3.835c-1.778,0.306-3.547,0.449-5.316,0.449    C388.435,277.978,382.257,276.028,376.97,272.289z M406.527,314.688c37.618-22.682,43.71,60.856,43.71,60.856    C443.323,373.058,368.908,337.371,406.527,314.688z" fill="#46d4c8"/>
		<path d="M532.398,351.762c0,0-2.764-48.635-35.41-36.787c-25.446,10.232-2.209,39.006,0,41.215    c5.346,6.875,21.573,27.941,4.428,49.237c0,0,75.237,10.509,79.942-35.41C583.845,334.052,539.589,346.225,532.398,351.762z" fill="#46d4c8"/>
		<path d="M80.044,405.427c-17.155-21.296-0.918-42.362,4.428-49.237c2.209-2.209,25.446-30.982,0-41.215    c-32.646-11.838-35.41,36.787-35.41,36.787c-7.191-5.537-51.456-17.7-48.96,18.255C4.797,415.936,80.044,405.427,80.044,405.427z" fill="#46d4c8"/>
	</g>
</g>
<g>
</g>
<g>
</g>
<g>
</g>
<g>
</g>
<g>
</g>
<g>
</g>
<g>
</g>
<g>
</g>
<g>
</g>
<g>
</g>
<g>
</g>
<g>
</g>
<g>
</g>
<g>
</g>
<g>
</g>
</svg>
