<?xml version="1.0" encoding="iso-8859-1"?>
<!-- Generator: Adobe Illustrator 16.0.0, SVG Export Plug-In . SVG Version: 6.00 Build 0)  -->
<!DOCTYPE svg PUBLIC "-//W3C//DTD SVG 1.1//EN" "http://www.w3.org/Graphics/SVG/1.1/DTD/svg11.dtd">
<svg version="1.1" id="Capa_1" xmlns="http://www.w3.org/2000/svg" xmlns:xlink="http://www.w3.org/1999/xlink" x="0px" y="0px"
	 width="31.999px" height="31.999px" viewBox="0 0 31.999 31.999" style="enable-background:new 0 0 31.999 31.999;"
	 xml:space="preserve">
<g>
	<g>
		<path d="M1.525,24.097c0.691,0.599,1.519,1.06,2.394,1.438c0.876,0.381,1.808,0.664,2.759,0.908
			c0.952,0.248,1.935,0.428,2.922,0.56c0.987,0.125,1.979,0.208,2.954,0.235c0.977,0.029,1.936,0.008,2.861-0.045
			c1.851-0.104,3.561-0.361,5.004-0.656c1.444-0.297,2.625-0.637,3.441-0.902c0.409-0.129,0.724-0.251,0.938-0.33
			c0.216-0.082,0.328-0.13,0.328-0.13s-0.484,0.073-1.33,0.182c-0.845,0.104-2.05,0.247-3.496,0.358
			c-1.443,0.113-3.126,0.208-4.924,0.207c-0.898,0-1.824-0.024-2.762-0.075c-0.937-0.06-1.886-0.14-2.827-0.269
			c-0.943-0.117-1.877-0.282-2.787-0.487c-0.228-0.046-0.452-0.104-0.676-0.161l-0.336-0.083l-0.16-0.04l-0.17-0.047
			c-0.233-0.062-0.435-0.126-0.646-0.191c-0.212-0.068-0.42-0.138-0.625-0.212c-0.815-0.299-1.575-0.651-2.191-1.1
			c-0.621-0.441-1.084-0.982-1.308-1.575c-0.228-0.591-0.223-1.22-0.107-1.764c0.121-0.545,0.316-1.016,0.508-1.387
			c0.194-0.371,0.371-0.654,0.501-0.841c0.128-0.188,0.205-0.284,0.205-0.284s-0.099,0.073-0.267,0.231
			c-0.166,0.159-0.413,0.396-0.678,0.742c-0.266,0.345-0.571,0.792-0.792,1.384c-0.223,0.583-0.365,1.346-0.16,2.16
			C0.293,22.737,0.834,23.507,1.525,24.097z"/>
		<path d="M28.096,25.237c-0.55,0.256-1.181,0.516-1.871,0.788c-0.69,0.271-1.453,0.524-2.263,0.778
			c-0.809,0.251-1.673,0.475-2.574,0.671c-0.9,0.197-1.838,0.365-2.794,0.492c-0.955,0.13-1.943,0.213-2.909,0.254
			c-0.992,0.039-1.965,0.043-2.935,0.006C11.785,28.19,10.838,28.114,9.926,28c-0.909-0.113-1.784-0.266-2.607-0.445
			c-0.822-0.182-1.588-0.404-2.287-0.632c-0.698-0.234-1.327-0.487-1.875-0.734c-0.545-0.252-1.009-0.499-1.385-0.718
			c-0.749-0.439-1.133-0.77-1.133-0.77s0.302,0.41,0.987,0.978c0.34,0.285,0.773,0.608,1.3,0.938
			c0.522,0.334,1.142,0.666,1.839,0.98c0.695,0.321,1.477,0.607,2.316,0.861c0.84,0.257,1.744,0.466,2.687,0.625
			c0.944,0.158,1.927,0.265,2.929,0.322c0.998,0.049,2.025,0.051,3.031,0c1.032-0.045,2.038-0.158,3.03-0.317
			c0.99-0.16,1.956-0.37,2.875-0.622c0.92-0.251,1.792-0.548,2.608-0.857c0.816-0.308,1.564-0.656,2.246-0.99
			c0.682-0.332,1.284-0.685,1.811-1.002s0.966-0.627,1.323-0.883c0.714-0.52,1.078-0.867,1.078-0.867s-0.422,0.271-1.195,0.678
			C29.12,24.75,28.644,24.98,28.096,25.237z"/>
		<path d="M31.999,17.325V3.864c-0.876-0.81-2.042-1.309-3.33-1.309c-2.193,0-4.051,1.436-4.688,3.419l-1.849,0.497
			c-0.154-0.067-0.335-0.077-0.503-0.003c-0.317,0.14-0.464,0.511-0.325,0.83c0.118,0.275,0.261,0.892,0.048,1.066
			c-1.042,0.857-0.275,2.438-0.185,2.616c0.112,0.218,0.333,0.343,0.562,0.343c0.097,0,0.194-0.022,0.288-0.069
			c0.31-0.159,0.432-0.54,0.273-0.85c-0.169-0.33-0.311-0.923-0.138-1.066c0.454-0.373,0.58-0.912,0.561-1.427
			c0.472,0.489,0.905,0.955,0.931,1.04c0.028,0.104,0.064,0.218,0.103,0.335c0.016,2.092,0.833,3.984,2.149,5.412
			c-0.534-0.153-1.075-0.284-1.618-0.397c-1.093-0.224-2.198-0.379-3.291-0.451c-0.546-0.038-1.088-0.061-1.625-0.068
			c-0.53-0.001-1.053-0.002-1.568-0.003c-1.03,0.015-2.026,0.05-2.974,0.104c-0.946,0.07-1.842,0.163-2.665,0.302
			c-0.82,0.146-1.566,0.321-2.21,0.529c-0.642,0.21-1.189,0.418-1.631,0.611c-0.443,0.188-0.785,0.348-1.016,0.461
			c-0.232,0.11-0.356,0.17-0.356,0.17s0.526-0.151,1.447-0.416c0.461-0.125,1.02-0.273,1.666-0.407
			c0.646-0.128,1.378-0.248,2.185-0.315c0.805-0.075,1.683-0.117,2.614-0.126c0.933-0.018,1.917-0.011,2.938,0.007
			c0.511,0.007,1.029,0.014,1.556,0.021c0.518,0.012,1.043,0.038,1.57,0.079c1.055,0.087,2.123,0.211,3.175,0.422
			c1.051,0.206,2.082,0.496,3.062,0.859c0.641,0.243,1.255,0.534,1.817,0.872l-0.535,0.683c-0.019-0.011-0.036-0.024-0.053-0.036
			c-0.468-0.293-0.937-0.523-1.394-0.718c-0.915-0.392-1.792-0.618-2.57-0.778c-0.779-0.161-1.473-0.218-2.041-0.237
			c-0.568-0.018-1.016,0.026-1.314,0.068c-0.3,0.044-0.456,0.086-0.456,0.086s0.162-0.013,0.46-0.01
			c0.299,0,0.737,0.034,1.286,0.121c0.548,0.083,1.203,0.244,1.938,0.47c0.732,0.229,1.538,0.555,2.363,0.982
			c0.412,0.218,0.825,0.467,1.214,0.761c0.002,0.001,0.004,0.003,0.006,0.005l-0.339,0.434l-1.139,0.51
			c-0.192-0.147-0.396-0.286-0.61-0.409c-0.638-0.363-1.364-0.659-2.146-0.902c-0.194-0.061-0.396-0.122-0.597-0.178
			c-0.208-0.052-0.418-0.111-0.632-0.159c-0.424-0.097-0.859-0.164-1.302-0.23c-0.884-0.119-1.796-0.19-2.725-0.229
			c-0.93-0.038-1.873-0.041-2.815-0.002c-0.942,0.037-1.885,0.104-2.812,0.229c-0.463,0.063-0.92,0.136-1.384,0.23
			c-0.235,0.041-0.444,0.098-0.662,0.15c-0.218,0.054-0.436,0.105-0.651,0.158c-0.883,0.234-1.736,0.574-2.424,1.123
			c-0.343,0.272-0.645,0.594-0.861,0.965c-0.215,0.367-0.339,0.791-0.329,1.201c0.01,0.41,0.151,0.789,0.35,1.082
			c0.199,0.297,0.45,0.52,0.698,0.69c0.48,0.313,0.951,0.456,1.343,0.541c-0.471-0.041-0.928-0.082-1.363-0.129
			c-0.123-0.015-0.241-0.028-0.362-0.042c-0.021-0.006-0.041-0.012-0.064-0.021c-0.121-0.039-0.292-0.125-0.477-0.265
			c-0.184-0.146-0.388-0.342-0.575-0.603c-0.182-0.26-0.362-0.57-0.474-0.93c-0.112-0.357-0.165-0.753-0.118-1.148
			c0.054-0.394,0.204-0.782,0.463-1.137c0.061-0.091,0.135-0.176,0.209-0.261c0.035-0.044,0.079-0.083,0.118-0.126l0.059-0.062
			l0.007-0.008l0.007-0.006l0.038-0.033l0.152-0.136c0.05-0.043,0.088-0.063,0.132-0.097c0.076-0.061,0.186-0.126,0.287-0.191
			c0.415-0.258,0.902-0.462,1.4-0.645C8.781,17.536,9.3,17.38,9.82,17.249c0.521-0.133,1.041-0.25,1.548-0.352
			c0.506-0.104,1-0.191,1.472-0.273c0.47-0.078,0.917-0.158,1.331-0.216c0.415-0.056,0.795-0.123,1.134-0.164
			c0.338-0.04,0.634-0.087,0.879-0.112c0.244-0.025,0.438-0.052,0.569-0.059c0.132-0.009,0.203-0.014,0.203-0.014
			s-0.275-0.082-0.77-0.149c-0.248-0.031-0.548-0.072-0.894-0.094c-0.345-0.023-0.736-0.053-1.163-0.055
			c-0.427-0.004-0.89-0.011-1.38,0.013c-0.49,0.019-1.005,0.057-1.54,0.115c-0.534,0.059-1.084,0.142-1.643,0.255
			c-0.557,0.116-1.123,0.255-1.682,0.45c-0.559,0.192-1.114,0.427-1.636,0.76c-0.13,0.086-0.256,0.165-0.392,0.279
			c-0.063,0.051-0.14,0.108-0.19,0.157L5.519,17.93l-0.037,0.035l-0.038,0.038l-0.02,0.021L5.347,18.11
			c-0.05,0.06-0.104,0.113-0.149,0.176c-0.093,0.125-0.184,0.246-0.262,0.381c-0.33,0.519-0.5,1.134-0.497,1.703
			c0,0.285,0.045,0.559,0.115,0.81c0.067,0.252,0.165,0.483,0.281,0.688c0.229,0.412,0.506,0.739,0.794,0.975
			c0.245,0.21,0.492,0.352,0.715,0.445c-0.505-0.066-0.982-0.14-1.413-0.237c-0.361-0.072-0.69-0.16-0.992-0.257
			c-0.192-0.221-0.443-0.545-0.649-0.965c-0.204-0.424-0.359-0.938-0.38-1.5c-0.012-0.279,0.005-0.571,0.05-0.867
			c0.011-0.074,0.023-0.148,0.038-0.223l0.021-0.098l0.031-0.123l0.03-0.123l0.031-0.102c0.021-0.066,0.038-0.131,0.068-0.202
			c0.105-0.278,0.24-0.547,0.404-0.797c0.162-0.25,0.35-0.483,0.552-0.696c0.403-0.425,0.853-0.776,1.263-1.05
			c0.207-0.133,0.398-0.26,0.575-0.36c0.178-0.1,0.333-0.192,0.464-0.259c0.262-0.139,0.419-0.213,0.419-0.213s-0.175,0-0.475,0.046
			c-0.149,0.026-0.333,0.054-0.537,0.11c-0.205,0.056-0.439,0.118-0.683,0.217c-0.245,0.097-0.511,0.21-0.778,0.362
			c-0.269,0.15-0.542,0.333-0.805,0.551c-0.263,0.219-0.515,0.476-0.736,0.771c-0.221,0.294-0.412,0.625-0.549,0.978
			c-0.034,0.082-0.064,0.18-0.095,0.274l-0.044,0.14l-0.03,0.123l-0.029,0.123l-0.017,0.082l-0.013,0.068
			c-0.017,0.09-0.03,0.182-0.042,0.271c-0.042,0.365-0.042,0.732,0.01,1.084c0.1,0.705,0.409,1.318,0.77,1.736
			c0.091,0.107,0.182,0.204,0.275,0.291C2.6,22.2,2.282,21.909,2.094,21.683c-0.091-0.116-0.158-0.21-0.196-0.276
			c-0.041-0.067-0.062-0.102-0.062-0.102s0.011,0.039,0.033,0.114c0.02,0.077,0.063,0.186,0.129,0.325
			c0.133,0.278,0.408,0.666,0.874,1.027c0.463,0.366,1.104,0.692,1.858,0.977c0.76,0.268,1.63,0.516,2.586,0.703
			c0.958,0.196,1.983,0.375,3.081,0.535c1.134,0.145,2.304,0.221,3.522,0.252c1.216,0.031,2.471,0.024,3.748-0.031
			c1.276-0.051,2.571-0.164,3.865-0.329c1.291-0.173,2.587-0.384,3.843-0.743c0.628-0.178,1.249-0.385,1.852-0.643
			c0.601-0.261,1.188-0.566,1.726-0.984c0.268-0.208,0.518-0.45,0.734-0.729c0.098-0.119,0.238-0.341,0.291-0.444
			c0.093-0.162,0.165-0.339,0.215-0.526c0.107-0.373,0.098-0.786-0.004-1.14c-0.102-0.357-0.277-0.658-0.473-0.914
			c-0.292-0.378-0.626-0.667-0.967-0.913l0.544-0.696c0.178,0.118,0.352,0.239,0.515,0.369c0.608,0.479,1.088,1.072,1.314,1.716
			l-0.014,0.014l0.023,0.023c0.047,0.141,0.098,0.279,0.117,0.423c0.125,0.826-0.167,1.638-0.629,2.255
			c-0.462,0.623-1.032,1.104-1.562,1.482c-0.536,0.376-1.037,0.666-1.459,0.885c-0.424,0.219-0.764,0.376-1,0.477
			c-0.235,0.103-0.364,0.15-0.364,0.15s0.135-0.029,0.381-0.101c0.247-0.073,0.609-0.181,1.058-0.359
			c0.448-0.178,0.99-0.409,1.575-0.754c0.581-0.346,1.231-0.787,1.791-1.452c0.279-0.33,0.533-0.722,0.703-1.177
			c0.174-0.454,0.252-0.967,0.196-1.493c-0.02-0.186-0.076-0.367-0.128-0.548l0.188-0.19v-0.574l-0.577-0.979
			c0.145,0.008,0.285,0.021,0.431,0.021C31.902,17.334,31.95,17.327,31.999,17.325z M11.755,21.067
			c0.188-0.394,0.659-0.56,1.051-0.373c0.394,0.188,0.56,0.658,0.373,1.051c-0.188,0.394-0.658,0.561-1.051,0.373
			S11.568,21.46,11.755,21.067z M18.535,21.067c0.188-0.394,0.659-0.56,1.051-0.373c0.395,0.188,0.562,0.658,0.373,1.051
			c-0.187,0.394-0.658,0.561-1.051,0.373S18.349,21.46,18.535,21.067z M25.031,22.836c-0.395,0.095-0.803,0.171-1.208,0.251
			c-0.405-1.041-1.155-1.949-2.222-2.494c-0.029-0.015,0.458-1.146,0.458-1.146l-1.326,0.742l-0.412-1.542l-0.612,1.192
			c-1.204-0.164-2.427,0.454-2.979,1.609c-0.097,0.203-0.165,0.414-0.21,0.625c-0.425-0.607-0.996-1.123-1.7-1.481
			c-0.029-0.015,0.458-1.146,0.458-1.146l-1.325,0.742l-0.412-1.542l-0.613,1.192c-1.204-0.164-2.427,0.454-2.979,1.609
			c-0.335,0.703-0.353,1.472-0.117,2.154c-0.213-0.04-0.509-0.1-0.871-0.226c-0.375-0.13-0.828-0.328-1.233-0.675
			c-0.201-0.172-0.389-0.381-0.519-0.631c-0.13-0.248-0.199-0.533-0.175-0.824c0.036-0.586,0.462-1.155,1.067-1.549
			c0.606-0.401,1.364-0.676,2.175-0.834c0.102-0.02,0.204-0.039,0.308-0.056c0.11-0.019,0.221-0.035,0.333-0.054
			c0.217-0.032,0.444-0.079,0.652-0.102c0.421-0.059,0.867-0.1,1.313-0.144c0.896-0.077,1.813-0.117,2.73-0.144
			c0.918-0.025,1.837-0.031,2.743-0.012c0.902,0.018,1.792,0.053,2.643,0.119c0.212,0.02,0.422,0.04,0.63,0.059
			c0.207,0.024,0.411,0.049,0.612,0.074c0.2,0.027,0.394,0.063,0.588,0.094c0.199,0.041,0.389,0.082,0.581,0.127
			c0.759,0.186,1.468,0.388,2.076,0.656c0.601,0.269,1.125,0.6,1.363,1.021c0.116,0.208,0.153,0.433,0.133,0.647
			c-0.023,0.215-0.1,0.418-0.189,0.59c-0.174,0.326-0.366,0.563-0.507,0.727C25.88,22.61,25.46,22.73,25.031,22.836z M29.112,20.489
			c-0.03,0.09-0.074,0.181-0.132,0.27l-0.059,0.093c-0.019,0.026-0.031,0.041-0.048,0.062l-0.044,0.06l-0.059,0.067
			c-0.155,0.179-0.348,0.343-0.559,0.498c-0.423,0.309-0.935,0.56-1.475,0.771c-0.082,0.032-0.167,0.062-0.25,0.092
			c0.149-0.128,0.326-0.294,0.502-0.53c0.126-0.172,0.25-0.383,0.325-0.649c0.075-0.265,0.064-0.595-0.061-0.901
			c-0.118-0.287-0.311-0.535-0.541-0.759l0.949-0.424l1.385,0.514c0.043,0.097,0.076,0.193,0.098,0.287
			C29.187,20.127,29.179,20.308,29.112,20.489z M28.682,19.114l-0.718-0.267l0.2-0.256C28.354,18.754,28.524,18.928,28.682,19.114z
			 M25.396,6.415c0-0.746,0.604-1.351,1.352-1.351s1.352,0.605,1.352,1.351c0,0.747-0.604,1.352-1.352,1.352
			S25.396,7.162,25.396,6.415z M31.745,18.593l-0.067,0.069c-0.081-0.191-0.165-0.383-0.276-0.561
			c-0.198-0.316-0.445-0.597-0.709-0.861c0.095,0.014,0.187,0.033,0.283,0.043L31.745,18.593z"/>
		<path d="M27.329,6.415c0-0.098-0.021-0.189-0.059-0.273C27.202,6.229,27.1,6.29,26.979,6.29c-0.206,0-0.374-0.168-0.374-0.375
			c0-0.064,0.021-0.122,0.049-0.175h-0.001c-0.373,0-0.675,0.302-0.675,0.675c0,0.374,0.302,0.676,0.675,0.676
			S27.329,6.788,27.329,6.415z"/>
		<path d="M19.122,21.497c-0.03,0.063-0.087,0.104-0.15,0.117c0.034,0.041,0.077,0.075,0.129,0.1
			c0.196,0.093,0.431,0.01,0.524-0.186c0.095-0.197,0.012-0.433-0.186-0.525c-0.197-0.094-0.433-0.012-0.526,0.186
			c0.035-0.001,0.071,0.002,0.104,0.018C19.127,21.258,19.174,21.388,19.122,21.497z"/>
		<path d="M12.342,21.497c-0.03,0.063-0.087,0.104-0.151,0.117c0.035,0.041,0.078,0.075,0.129,0.1
			c0.197,0.093,0.432,0.01,0.525-0.186c0.093-0.197,0.011-0.433-0.186-0.525c-0.196-0.094-0.432-0.012-0.525,0.186
			c0.035-0.001,0.07,0.002,0.104,0.018C12.348,21.258,12.395,21.388,12.342,21.497z"/>
	</g>
</g>
<g>
</g>
<g>
</g>
<g>
</g>
<g>
</g>
<g>
</g>
<g>
</g>
<g>
</g>
<g>
</g>
<g>
</g>
<g>
</g>
<g>
</g>
<g>
</g>
<g>
</g>
<g>
</g>
<g>
</g>
</svg>
